<?xml version="1.0" encoding="UTF-8"?>
<svg id="a" data-name="Layer 1" xmlns="http://www.w3.org/2000/svg" viewBox="0 0 19.22 48.05">
  <defs>
    <style>
      .b {
        fill: #1e3e4d;
        stroke-width: 0px;
      }
    </style>
  </defs>
  <path class="b" d="M16.33,15.62l-6.96,24.14c-.38,1.38-.58,2.29-.58,2.72,0,.25.1.48.31.69.2.22.42.32.64.32.38,0,.77-.17,1.15-.51,1.02-.84,2.24-2.35,3.67-4.55l1.16.68c-3.42,5.95-7.05,8.93-10.9,8.93-1.47,0-2.64-.41-3.51-1.24-.87-.83-1.31-1.87-1.31-3.14,0-.84.19-1.9.58-3.19l4.72-16.23c.45-1.56.68-2.74.68-3.53,0-.5-.22-.94-.64-1.32-.43-.38-1.02-.58-1.77-.58-.34,0-.75.01-1.22.03l.44-1.36,11.51-1.87h2.04ZM14.23,0c1.4,0,2.59.49,3.55,1.46.96.97,1.44,2.15,1.44,3.53s-.49,2.56-1.46,3.53c-.97.97-2.15,1.46-3.53,1.46s-2.52-.49-3.5-1.46c-.97-.97-1.46-2.15-1.46-3.53s.48-2.56,1.44-3.53c.96-.97,2.13-1.46,3.51-1.46Z"/>
</svg>