<?xml version="1.0" encoding="utf-8"?>
<!-- Generator: Adobe Illustrator 28.2.0, SVG Export Plug-In . SVG Version: 6.00 Build 0)  -->
<svg version="1.1" id="Layer_1" xmlns="http://www.w3.org/2000/svg" xmlns:xlink="http://www.w3.org/1999/xlink" x="0px" y="0px"
	 viewBox="0 0 300 144" style="enable-background:new 0 0 300 144;" xml:space="preserve">
<style type="text/css">
	.st0{clip-path:url(#SVGID_00000120548134143787230910000002618938997128228267_);fill:#1E3E4D;}
</style>
<g>
	<defs>
		<rect id="SVGID_1_" x="1.04" y="1.34" width="296.37" height="140.66"/>
	</defs>
	<clipPath id="SVGID_00000161618993920569527320000014605503143707376808_">
		<use xlink:href="#SVGID_1_"  style="overflow:visible;"/>
	</clipPath>
	<path style="clip-path:url(#SVGID_00000161618993920569527320000014605503143707376808_);fill:#1E3E4D;" d="M254.15,59.41v1.51
		l-0.71-0.47C253.44,59.95,253.68,59.6,254.15,59.41 M252.97,55.26v0.14c-0.41-0.31-0.69-0.47-0.85-0.47v-0.61
		C252.43,54.51,252.72,54.82,252.97,55.26 M250.37,52.67v0.14c-0.5,0.06-1.26,0.25-2.26,0.57c-0.38-0.38-0.85-1.09-1.42-2.12
		C247.26,51.25,248.49,51.72,250.37,52.67 M233.01,40.54h0.24v0.24l0.14,0.8c-0.63-0.38-0.94-0.69-0.94-0.94L233.01,40.54z
		 M231.74,36.39c0,0.54,0.08,0.93,0.24,1.18l-0.24,0.14h-0.38v-0.24c0-0.22,0.08-0.58,0.24-1.08H231.74z M237.26,28.13
		c-6.04,3.68-9.06,6.75-9.06,9.2v0.14c0,2.8,1.45,5.19,4.34,7.17c2.93,2.3,5.25,3.76,6.98,4.39c1.45,0,3.05,1.34,4.81,4.01
		c1.07,1.7,2.06,4.17,2.97,7.41l-1.42,6.84c0,0.75-1.89,1.23-5.66,1.42l-4.39-0.57c-6.64-2.14-11.07-5.13-13.3-8.97h-0.24
		l-0.94,0.57c0,0.98,0.42,2.16,1.27,3.54c5.88,5.13,11.7,7.69,17.45,7.69c1.32-0.09,2.63-0.22,3.92-0.38h0.09
		c-0.31,0.57-0.47,0.96-0.47,1.18v0.38c0,0.16,0.08,0.24,0.24,0.24h1.18c0.82-0.63,1.49-1.42,2.03-2.36
		c3.36-0.78,5.65-1.81,6.84-3.07c2.33-2.64,3.54-4.84,3.63-6.61c0-2.48-0.87-4.84-2.59-7.08c-1.76-2.14-4.7-3.79-8.82-4.95
		c-1.38,0-2.85-0.6-4.39-1.79l0.14-0.57V45.5c-3.4-1.35-5.1-2.66-5.1-3.92v-0.57c1.23-0.72,2.25-1.64,3.07-2.74v-0.94
		c-0.76-0.47-1.15-0.79-1.18-0.94c-0.57,0.16-0.91,0.24-1.04,0.24v-0.1c0.44-0.63,0.71-0.94,0.8-0.94c0.31-1.04,1.46-2.61,3.44-4.72
		v-0.85c-0.13-0.31-0.41-0.47-0.85-0.47h-0.24l-0.8,0.14v-0.14c2.61-1.1,4.81-1.65,6.61-1.65c0.91,0.16,2.09,0.47,3.54,0.94h0.57
		c0.31-0.19,0.47-0.35,0.47-0.47v-0.8c-1.04-1.26-2.45-1.89-4.25-1.89h-1.89C243.09,25.68,240.5,26.5,237.26,28.13 M185.83,68.9
		v0.85h-2.12v-0.38l0.42-0.85L185.83,68.9z M191.87,62.43h0.09l0.19,1.46v2.36h-0.19c-0.09-1.07-0.54-1.6-1.32-1.6
		c-0.38,0-0.94,0.11-1.7,0.33h-0.09C189.64,64.19,190.65,63.35,191.87,62.43 M192.49,51.72v1.08c0,0.54-0.03,1.36-0.09,2.45h-0.76
		c0-0.47-0.57-0.75-1.7-0.85C190,54.13,190.85,53.23,192.49,51.72 M189.33,49.18c1.42-1.35,2.44-2.17,3.07-2.45
		c0.12,0.54,0.24,1.18,0.33,1.93v0.14c-0.28-0.16-0.61-0.24-0.99-0.24h-0.09c-0.57,0-1.49,0.39-2.78,1.18v-0.24
		C189.17,49.51,189.33,49.4,189.33,49.18 M184.18,39.36c0.25,0.6,0.55,0.9,0.9,0.9c0,0.19-0.17,0.6-0.52,1.23h-0.14
		c-0.22-1.23-0.33-1.87-0.33-1.94v-0.19H184.18z M188.1,41.96c0.53-0.91,2.03-2.09,4.48-3.54v2.93c-0.44-0.41-1.15-0.61-2.12-0.61
		h-0.19l-3.3,3.16h-0.1C187.56,42.86,187.97,42.21,188.1,41.96 M187.96,35.49c0.72-0.88,2.48-2.31,5.28-4.29v0.38
		c-0.22,1.79-0.75,2.69-1.6,2.69c-2.55,2.55-4.14,3.89-4.77,4.01h-0.09C186.9,37.65,187.3,36.72,187.96,35.49 M184.84,29.27
		c0-0.44,0.93-0.72,2.78-0.85h0.09c-0.97,1.2-2.11,2.3-3.4,3.3v-0.33C184.33,30.95,184.5,30.24,184.84,29.27 M193.9,27.76h-1.65
		v-0.8h1.65V27.76z M193.86,23.8c-2.89,1.54-5.47,2.31-7.74,2.31l-2.64-0.76c0,0.1-0.05,0.14-0.14,0.14
		c-0.16-0.09-0.52-0.17-1.08-0.24c-1.73,0.54-2.6,1.18-2.6,1.93c0.57,0.73,1.15,1.13,1.75,1.23c-0.44,3.84-0.66,9.17-0.66,15.99v1.7
		c0,0.12,0.09,1.08,0.28,2.88v0.52c-0.97,1.2-1.46,2.05-1.46,2.55c0.44,1.07,0.8,1.6,1.08,1.6c-0.38,0.91-0.57,1.65-0.57,2.22
		c0.72,0.75,1.09,1.35,1.09,1.79v0.52c-0.35,5.13-0.71,8.21-1.09,9.25v0.14c0,0.25,0.14,0.61,0.43,1.08
		c-0.06,1.89-0.1,2.96-0.1,3.21l-0.09,0.61c0.13,2.33,0.36,3.49,0.71,3.49h1.09c1.48-0.63,2.22-1.85,2.22-3.68
		c4.97-0.63,7.61-0.94,7.92-0.94c0.06,0,0.6,0.03,1.6,0.09c0.47-0.35,1.24-1.3,2.31-2.88v-0.38c-0.19,0-0.44-0.08-0.75-0.24
		c0-0.09,0.05-0.14,0.14-0.14c0-0.85-0.05-1.51-0.14-1.98c0.44-6.13,0.66-11.01,0.66-14.63v-0.09c1.7-0.09,2.69-0.17,2.97-0.24
		c0.22,0.06,0.75,0.14,1.6,0.24c0.94-0.16,2.08-0.27,3.4-0.33c3.59,0.19,5.83,0.33,6.74,0.42c0.44-0.06,0.8-0.09,1.09-0.09h0.71
		l0.24-0.14l-0.24,2.69c0,0.19,0.05,0.36,0.14,0.52c-0.1,0.88-0.14,1.65-0.14,2.31v4.58c0,0.19-0.24,0.36-0.71,0.52l1.79,10.99
		c0.5,0,0.88-0.2,1.13-0.61c0.97,0,1.46-0.93,1.46-2.78v-1.13c-0.03-4.65-0.24-6.98-0.61-6.98c0.25-2.23,0.38-4.17,0.38-5.8
		c0-0.31-0.13-1.04-0.38-2.17c0.57-2.36,0.85-4.35,0.85-5.99c0-0.38-0.08-1.09-0.24-2.12c0.66-3.05,0.99-5.03,0.99-5.94
		c-0.16-1.04-0.24-1.65-0.24-1.84c0.72-1.89,1.09-4.36,1.09-7.41l0.85-3.16c0-0.31-0.18-0.69-0.52-1.13l-2.41,0.61
		c-0.63,0-1.56,6.29-2.78,18.87l0.19,0.19l-0.19,2.64l-3.68-0.71l-2.45,0.19c-1.26-0.12-3.32-0.24-6.18-0.33
		c-0.41,0-2.09,0.25-5.05,0.76c-0.16-1.07-0.24-1.73-0.24-1.98c0.28-1.98,0.43-3.85,0.43-5.62v-0.33c0-0.44-0.09-0.94-0.28-1.51
		c0.63-5.72,1.15-9.86,1.56-12.41c-0.06-0.19-0.09-0.31-0.09-0.38c0.15-0.94,0.24-1.79,0.24-2.55c0-0.35-0.08-0.63-0.24-0.85
		C195.21,22.76,194.08,23.32,193.86,23.8 M162.58,65.64c0,0.06,0.05,0.18,0.14,0.33c0,0.28-0.28,0.65-0.85,1.09h-0.09
		c0-0.16,0.24-0.63,0.71-1.42H162.58z M161.87,61.39c0,0.19-0.03,0.5-0.09,0.94l0.09,0.47l-0.47-0.24l-0.57,0.09v-0.09
		c0.54-0.76,0.8-1.2,0.8-1.32L161.87,61.39z M154.93,58.09v0.47c-0.13,0.22-0.25,0.33-0.38,0.33l0.24-0.8H154.93z M161.4,56.3v1.56
		c-0.09,0-1.67,1.05-4.72,3.16L161.4,56.3z M155.17,54.79v0.09h-0.71c-0.09-0.28-0.14-0.44-0.14-0.47v-0.1
		C154.79,54.32,155.08,54.48,155.17,54.79 M161.3,51.25v3.3c-0.35-0.31-0.66-0.47-0.94-0.47h-1.42
		C158.94,53.55,159.73,52.6,161.3,51.25 M161.16,46.53c-0.35,0.35-0.77,0.66-1.27,0.94h-0.14v-0.14l1.09-1.27
		C160.96,46.06,161.07,46.22,161.16,46.53 M161.3,42.76l0.09,0.8v0.38c-0.28-0.16-0.47-0.39-0.57-0.71L161.3,42.76z M158,40.5
		c1.1-2.67,2.08-4.09,2.92-4.25h0.14v1.18c-0.25,1.26-0.64,1.89-1.18,1.89c-1.26,1.6-2.01,2.47-2.26,2.6v-0.09
		C157.87,40.97,158,40.53,158,40.5 M160.83,30.73c0,0.06,0.03,0.17,0.09,0.33c0,0.28-1.02,1.54-3.07,3.77
		C158.17,33.83,159.16,32.46,160.83,30.73 M144.08,26.11c-1.51,0-2.38,0.6-2.59,1.79v0.33c0.25,0.47,0.52,0.79,0.8,0.94h0.38
		c0.31,0,0.82-0.08,1.51-0.24c1.01,0.09,1.56,0.14,1.65,0.14l0.24-0.14v0.14c0.57,0,1.04-0.05,1.42-0.14
		c1.26,0.16,2.99,0.24,5.19,0.24h2.03c-0.25,1.26-0.38,2.09-0.38,2.5l0.14,1.18c0,1.51-0.6,2.88-1.79,4.11
		c0,0.09,0.16,0.77,0.47,2.03v0.71c0,1.45-0.31,3.89-0.94,7.31l0.14,0.24c-0.88,6.04-1.32,10.79-1.32,14.25v0.61
		c0.03,3.33,0.47,5.38,1.32,6.13c-0.69,0.6-1.06,0.99-1.09,1.18c0,0.79,0.83,1.29,2.5,1.51h0.57c0.35-0.22,0.79-0.33,1.32-0.33
		c0.57,1.01,1.35,1.51,2.36,1.51h0.09c0.22,0,0.45-0.08,0.71-0.24c0.35-0.78,0.71-1.29,1.08-1.51c4.31-0.82,6.46-1.84,6.46-3.07
		v-0.14c-0.69-2.74-1.16-4.39-1.41-4.95c0.09-1.82,0.14-2.77,0.14-2.83c0-1.76-0.28-3.29-0.85-4.58c0.16-0.53,0.28-1.87,0.38-4.01
		c-0.09-1.2-0.14-2.3-0.14-3.3c0-0.13-0.08-0.28-0.24-0.47v-0.47c0-0.35,0.08-0.66,0.24-0.94c-0.06-0.41-0.1-0.64-0.1-0.71
		c0-1.95-0.05-3.88-0.14-5.8l0.24-7.88c-0.13,0-0.24-0.44-0.33-1.32h0.1l-0.1-0.57v-0.24c0.19,0,0.77,0.03,1.75,0.09
		c0.54,0,1.01-0.03,1.42-0.09c0.91,0.06,1.78,0.09,2.6,0.09h3.3c0.22,0,0.46,0.08,0.71,0.24l1.08-0.09l3.63,0.57
		c0.54-0.16,0.93-0.42,1.18-0.8v-0.24c0-0.38-0.19-0.69-0.57-0.94c-0.57-0.28-1.95-0.67-4.15-1.18c-0.06,0-0.18,0.03-0.33,0.1
		c-1-0.22-4.07-0.33-9.2-0.33h-5.66c-0.22,0-0.46-0.08-0.71-0.24c-0.85,0.06-1.6,0.09-2.26,0.09h-5.99
		c-1.32-0.16-2.08-0.24-2.26-0.24H144.08z M102.61,65.83c0,0.47,0.6,0.71,1.79,0.71c-1.04,1.16-1.76,1.74-2.17,1.74h-1.23v-0.05
		c0-0.19,0.41-1.12,1.23-2.78L102.61,65.83z M105.59,57.76c0,0.09,0.17,0.36,0.52,0.8c-0.09,0.16-0.6,0.71-1.51,1.65
		c0.63-1.54,0.94-2.36,0.94-2.45H105.59z M112.85,55.73v0.05c-0.82,3.08-1.43,4.62-1.84,4.62l0.05-0.28v-0.28
		c0-0.13-0.22-0.54-0.66-1.23C111.34,57.32,112.16,56.36,112.85,55.73 M109.13,51.77c-0.03,0-0.49,0.47-1.37,1.42l0.94-1.98
		C108.8,51.27,108.94,51.46,109.13,51.77 M115.82,49.03l-0.47,1.6h-0.47l-0.47-0.24C114.72,49.81,115.2,49.35,115.82,49.03
		 M112.66,43.61c0.06,0,0.1,0.02,0.1,0.05l-1.84,2.22h-0.05v-0.1c0.44-1.26,0.8-2.08,1.08-2.45
		C112.15,43.33,112.38,43.42,112.66,43.61 M118.61,42.34l-1.7,4.34c-0.44-0.31-0.94-0.58-1.51-0.8
		C117.38,43.61,118.45,42.43,118.61,42.34 M124.22,37.67c0.19,0.94,0.36,1.53,0.52,1.75l0.94,4.39c1.1,2.23,2.09,4.59,2.97,7.07
		v0.09c-0.03,0-0.05-0.03-0.05-0.09c-3.05,0-6.31,0.06-9.76,0.19h-0.05c0-0.38,0.31-1.46,0.94-3.26c1.79-3.18,2.83-5.41,3.11-6.7
		l-0.14-0.28l1.42-3.16H124.22z M115.12,40.31c3.18-3.68,5.35-5.87,6.51-6.56c0,0.75-0.28,1.53-0.85,2.31v0.05l0.09,0.33h-0.9
		c-2.52,2.3-4.12,3.62-4.81,3.96h-0.05V40.31z M117.1,31.15l0.94-2.03c0-0.31,0.97-0.47,2.92-0.47h0.1v0.05l-0.8,0.28
		c-1.36,1.07-2.38,1.79-3.07,2.17H117.1z M117.81,26.34h-3.82c-0.47,0-1.09,0.25-1.84,0.75l2.12,1.75c0,0.19-0.09,0.46-0.28,0.8
		c-0.79,1.39-1.43,2.93-1.93,4.62c-1.73,3.49-2.96,6.26-3.68,8.3c-0.16,1.01-0.63,2.23-1.42,3.68c-1.16,2.99-2.5,5.77-4.01,8.35
		c-0.94,2.96-1.94,5.13-2.97,6.51c-0.25,0.41-0.66,1.4-1.23,2.97l-2.31,5.38v0.09c0,0.91,1.23,1.37,3.68,1.37h1.27
		c2.08,0,4.31-0.3,6.7-0.9c0,0.03,0.03,0.09,0.09,0.19c0,0.6-0.14,1.41-0.42,2.45c0.22,0.19,0.53,0.36,0.94,0.52
		c0.63,0.09,0.94,0.22,0.94,0.38l0.14-0.05h0.57c0.94-0.31,1.46-0.64,1.56-0.99V72.1c0-0.25-0.06-0.6-0.19-1.04
		c0.6-1.76,1.13-2.8,1.6-3.11v-0.19c0-0.28-0.05-0.58-0.14-0.9l0.99-3.16c1.01-1.26,1.51-2.26,1.51-3.02v-0.57
		c-0.06-0.16-0.12-0.24-0.19-0.24c0-0.41,0.2-0.72,0.61-0.94c0-1.41,0.41-2.88,1.23-4.39c0-0.63,0.68-0.94,2.03-0.94h0.28
		c0.19,0,0.53,0.03,1.04,0.09c0.35-0.06,0.55-0.09,0.61-0.09h7.78c1.16,0,2.05,2.01,2.64,6.04c0.76,2.14,1.13,4.45,1.13,6.94v1.56
		c0,0.63-0.05,1.27-0.14,1.93c0.5,0.57,1.26,0.85,2.26,0.85h0.71c0.66,0,1.02-0.49,1.08-1.46V66.3c-0.25-3.99-0.57-5.99-0.94-5.99
		c-0.28-1.35-0.46-2.04-0.52-2.08c-0.13-0.72-0.24-1.08-0.33-1.08c-0.31-1.13-0.52-1.72-0.61-1.75c-0.28-1.73-0.85-3.11-1.7-4.15
		c-0.31-1.23-0.96-2.85-1.93-4.86c-1.95-4.78-2.93-8.51-2.93-11.18c0-0.16,0.05-0.36,0.14-0.61c0-0.82-0.16-1.79-0.47-2.92
		c0.09,0,0.14-0.21,0.14-0.61c0-0.85-0.05-1.48-0.14-1.89c0.09,0,0.14-0.36,0.14-1.08V27.8c0-0.54-0.63-0.9-1.89-1.09
		c-0.47-0.63-1.37-0.94-2.69-0.94h-0.38C121.53,26.15,119.91,26.34,117.81,26.34 M15.43,69.27v0.85l-4.01,4.91v0.28l0.85,1.13
		c0,0.31-0.38,0.61-1.13,0.9c-1.48-0.19-2.44-0.39-2.88-0.61c0-0.75,0.19-1.13,0.57-1.13c1.13-4.47,2.09-7.25,2.88-8.35
		C13.34,68.6,14.58,69.27,15.43,69.27 M23.5,66.4h0.57c0,1.1-0.87,1.96-2.6,2.59C21.47,67.92,22.15,67.06,23.5,66.4 M15.71,59.46H16
		c1.1,0.79,1.78,1.18,2.03,1.18c-0.54,0.88-2.26,2.89-5.19,6.04h-0.57C14.07,62.4,15.21,60,15.71,59.46 M27.51,49.69h0.61v0.57
		c0,1.23-2.01,2.96-6.04,5.19h-0.33C21.75,54.63,23.67,52.71,27.51,49.69 M20.06,47.67c1,0.97,1.68,1.46,2.03,1.46
		c0,1.6-1.82,3.62-5.47,6.04H16L20.06,47.67z M56.33,46.25v0.57c0,0.47-0.2,1.34-0.61,2.6h-0.28c-0.31,0-0.5-0.19-0.57-0.57v-0.33
		C54.87,47.48,55.36,46.72,56.33,46.25 M21.19,41.06l2.31,1.42c0,0.97-1.06,2.23-3.16,3.77h-0.28
		C20.24,42.79,20.62,41.06,21.19,41.06 M63.51,34.13h0.28v1.46c-0.76,0.97-1.13,1.56-1.13,1.75L62.09,37
		C62.56,35.09,63.03,34.13,63.51,34.13 M32.13,31.53h0.57v1.75c0,2.58-2.58,4.69-7.74,6.32C25.65,37.27,28.05,34.58,32.13,31.53
		 M73.04,18.32v0.57c0,2.11-1.07,4.03-3.21,5.76h-0.57l-0.57-0.28C70.86,20.34,72.31,18.32,73.04,18.32 M29.26,16.86
		c0-1.29,1.35-2.34,4.06-3.16h0.85c0,1.67-1.24,3.89-3.73,6.65c-0.82,2.99-1.79,4.91-2.93,5.76c-0.22,2.3-0.69,3.44-1.42,3.44h-0.57
		C27.54,23.67,28.78,19.44,29.26,16.86 M77.61,2.19c-0.19,1.07-0.28,1.84-0.28,2.31l-4.01,4.91c-2.17,1.95-3.71,3.66-4.62,5.14
		c0,0.91-1.54,3.81-4.62,8.68c-2.48,3.14-4.78,7.36-6.89,12.64c-3.46,5.32-5.19,8.19-5.19,8.63c-0.41,0-1.37-1.24-2.88-3.73
		c-1.13-5.57-2-8.93-2.6-10.1c-1.32-9.09-2.56-15.8-3.73-20.14V8.23c-0.66-1.13-1.62-1.7-2.88-1.7c-2.42,2.08-4.83,3.51-7.22,4.29
		c-4.18,1.1-6.67,2.15-7.45,3.16c0,0.82,0.09,1.87,0.28,3.16c-0.6,2.33-0.99,3.68-1.18,4.06c-2.67,1.76-4.01,3.29-4.01,4.58
		c0,0.12,0.09,1.38,0.28,3.77l-0.28,1.98c0.19,0,0.38,0.3,0.57,0.9c-0.19,0.19-0.66,1.82-1.41,4.91c-1.98,3.27-3.81,7.97-5.47,14.1
		c-1.04,1.39-3.16,6.56-6.37,15.52C4.97,72.12,2.77,77.5,1.04,83.1c0,0.57,0.96,1.04,2.88,1.42h2.03l0.57-0.28
		c0-2.67,0.77-4.01,2.31-4.01c0.19,0,0.47,0.09,0.85,0.28c5.69-0.38,9.15-0.87,10.38-1.46c0.19,0,0.47,0.09,0.85,0.28
		c-0.19,2.61-0.28,4.53-0.28,5.76v1.46c0,0.19,0.96,0.87,2.88,2.03h1.46c0.57-0.31,0.85-0.61,0.85-0.9v-0.85
		c-0.57-0.63-0.96-2.17-1.18-4.62l1.46-4.86c1.54-1.73,2.31-2.89,2.31-3.49v-0.28l-1.46-1.7v-1.18c0.38-1.35,0.57-2.31,0.57-2.88
		c1.16-2.64,1.93-4.94,2.31-6.89c-0.31,0-0.5-0.19-0.57-0.57V57.2c0-1.38,1.63-3.41,4.91-6.09v-0.85c-1.16-0.76-1.74-2.3-1.74-4.62
		c0.06-0.31,0.55-1.07,1.46-2.27c0-0.69-0.09-1.56-0.28-2.59c1.89-2.96,3.03-4.59,3.44-4.91v-1.13l-0.28-1.75
		c0.19-0.38,0.28-0.66,0.28-0.85c0-2.29,1.06-5.66,3.16-10.09V21.2h0.57c0.82,6.13,2.08,11.21,3.77,15.24
		c0.22,3.18,2.61,7.97,7.17,14.39c0,0.41-0.09,1.46-0.28,3.16c0,0.66,1.05,2.2,3.16,4.62h1.46c0.19,0,0.66-0.58,1.42-1.75
		c1.35-4.62,4.91-12,10.66-22.13c3.02-6.41,5.71-10.84,8.07-13.26h0.28l0.57,0.28c0,0.98-0.19,2.52-0.57,4.62
		c1.23,10.41,2.47,18.09,3.73,23.02c0.57,4.4,1.43,8.81,2.59,13.21c0.66,0,1.9,6.43,3.73,19.3v8.07c0,0.28,0.77,0.96,2.31,2.03h1.75
		l1.13-0.85c-0.13-3.08-0.31-4.62-0.57-4.62c0-7.58-2.2-18.71-6.61-33.4c-1.54-8.59-2.9-17.5-4.06-26.75c0.19,0,0.28-0.09,0.28-0.28
		l-0.28-0.61c0.19,0,0.28-0.09,0.28-0.28v-0.85c0-0.44-0.1-0.82-0.28-1.13c0.19-0.35,0.28-0.74,0.28-1.18v-1.7l-0.28-0.61h0.28
		l-0.28-1.42v-1.18c0-1.23,0.77-3.71,2.31-7.45c-0.72-1.16-1.2-1.75-1.42-1.75c0.19-1.92,0.28-3.35,0.28-4.29
		c-1.42-1.54-2.67-2.31-3.77-2.31h-0.57C77.33,1.53,77.42,1.81,77.61,2.19"/>
	<path style="clip-path:url(#SVGID_00000161618993920569527320000014605503143707376808_);fill:#1E3E4D;" d="M283.73,135.82
		l-1.93-0.09c1.89-3.33,3.66-5.68,5.33-7.03h0.24l0.57,0.24v0.47c0,2.36-1.35,4.51-4.06,6.46
		C283.85,135.87,283.8,135.85,283.73,135.82 M273.5,135.35l0.09,1.7c0.03,0.35,0.05,0.69,0.05,1.04h0.05
		c0.38,0.72,4.45,1.09,12.22,1.09l0.9-0.05c0.25,0,0.66,0.47,1.23,1.42c1.89-0.85,2.83-1.63,2.83-2.36v-0.1
		c-0.09-0.47-0.19-0.9-0.28-1.27c0.57-2.95,1.13-4.79,1.7-5.52c-0.09-1.13-0.6-1.89-1.51-2.26c0.97-3.43,1.56-6.29,1.74-8.59
		l-0.05-0.52c-0.03-0.25-0.39-0.49-1.09-0.71l-0.52,0.28c-2.71-0.19-4.11-0.28-4.2-0.28c-0.41,0-1.07,0.13-1.98,0.38
		c-0.35-0.16-0.71-0.24-1.08-0.24c-0.19,0.03-0.44,0.14-0.76,0.33c-0.31-0.16-0.67-0.24-1.08-0.24l-0.24,0.05l-1.51,0.33h-0.19
		c-0.88,0-1.56-0.47-2.03-1.42c-2.45,0.12-3.68,0.9-3.68,2.31v0.19l-0.24,3.4c0.06,0.72,0.09,1.4,0.09,2.03c0,1.04-0.08,2-0.24,2.88
		h0.09c0.09,0,0.14,0.06,0.14,0.19c-0.22,0.94-0.36,2.34-0.42,4.2v1.75H273.5z M289.63,55.62c-0.22,0-1.05-0.14-2.5-0.43h-0.61
		c-0.35,0-0.55,0.14-0.61,0.43c-0.69,0-1.82-0.21-3.4-0.61c-3.27,0.22-4.91,0.57-4.91,1.04c-0.79,2.08-1.18,5.57-1.18,10.47
		c0.38,1.82,0.6,3.11,0.66,3.87l-0.14,2.45c0.28,0.69,0.46,1.35,0.52,1.98c-0.5,1.07-1.06,1.89-1.65,2.45l0.05,0.38
		c0.06,0.75,0.74,1.37,2.03,1.84l-0.57,7.88c-1.7,7.45-2.55,12.8-2.55,16.04c0,0.44,0.02,0.83,0.05,1.18l0.09,0.99
		c0.19,2.01,1.51,3.02,3.96,3.02c1.16,0,2.15-0.47,2.97-1.42h3.63c2.2,0,5.49-0.08,9.86-0.24l0.57-0.57l-0.05-0.19
		c-2.33-1.13-3.69-4.03-4.1-8.68c0.41-3.4,0.61-5.53,0.61-6.42v-0.28c1.04-4.69,1.96-11.83,2.78-21.42
		c-0.03-0.35-0.05-0.67-0.05-0.99c0-2.17,0.77-3.62,2.31-4.34v-0.33c-0.03-0.35-0.57-0.57-1.6-0.66v-0.19
		c-0.09-1.16-0.14-2.44-0.14-3.82c0-1.16,0.03-2.39,0.09-3.68c-0.82-0.66-1.35-0.99-1.6-0.99h-2.22
		C290.81,54.39,290.04,54.8,289.63,55.62 M288.41,59.58c0-0.5,0.49-0.94,1.46-1.32h0.28l0.38,0.99l0.05,0.61v0.05
		c0,0.25-0.17,0.38-0.52,0.38l-1.65-0.66V59.58z M290.15,61.28c0,0.16,0.11,0.35,0.33,0.57c-0.16,0.25-0.24,0.54-0.24,0.85
		l0.14,1.37c-0.03,0.35-1.4,1.3-4.11,2.88H286C287.67,64.02,289.05,62.13,290.15,61.28 M289.82,68.73c0.03,0.16,0.16,0.24,0.38,0.24
		v0.09c0,0.38-0.11,1.42-0.33,3.11v0.05c0,0.88-2.23,2.42-6.7,4.62c-0.35,0-0.57-0.14-0.66-0.42l-0.05-0.38
		C283.43,73.18,285.89,70.75,289.82,68.73 M288.83,78.27c0,0.28-0.2,0.42-0.61,0.42l-0.05-0.42H288.83z M288.31,82.93h0.28
		l0.05,0.57l-0.14,1.46c-1.85,0.63-3.33,1.29-4.43,1.98h-0.33l-0.05-0.38C285.26,84.99,286.8,83.78,288.31,82.93 M287.65,89.4v0.24
		c0,0.35-0.05,0.8-0.14,1.37v0.05c0,0.75-1.18,1.35-3.54,1.79c-0.03-0.16-0.14-0.24-0.33-0.24l3.35-3.44L287.65,89.4z M286.14,96.66
		h0.28c0,0.13,0.13,0.33,0.38,0.61v0.14c0,1.01-0.97,1.51-2.93,1.51h-0.28l-0.05-0.24C284.77,97.46,285.64,96.79,286.14,96.66
		 M284.96,100.91h0.33v0.05c0,0.85-1.21,2.19-3.63,4.01h-0.99c-0.35,0-0.54-0.12-0.57-0.38l-0.19-1.84l0.19-1.04h1.89
		C282.59,101.71,283.58,101.44,284.96,100.91 M287.42,104.16c0.41,0,0.63,0.14,0.66,0.43l0.05,0.38v0.05c0,0.25-0.2,0.38-0.61,0.38
		h-0.33l-0.94-0.43c0.38-0.31,0.57-0.57,0.57-0.75v-0.05H287.42z M278.88,122.23l4.1-0.24l-4.67,6.41l-1.04,0.09
		C277.81,124.35,278.34,122.26,278.88,122.23 M288.45,121.95l0.05,0.8c-3.52,4.62-6.34,7.25-8.45,7.88l-0.28,0.05l-0.05-0.24
		C284.41,124.84,287.32,122.01,288.45,121.95 M283.59,57.22h0.33l0.66,0.19v0.05c0,0.6-0.64,1.73-1.93,3.4h-0.61
		C282.16,58.43,282.68,57.22,283.59,57.22 M264.86,116.62v1.51l-0.71-0.47C264.16,117.15,264.39,116.81,264.86,116.62
		 M263.68,112.47v0.14c-0.41-0.31-0.69-0.47-0.85-0.47v-0.61C263.15,111.71,263.43,112.03,263.68,112.47 M261.09,109.87v0.14
		c-0.5,0.06-1.26,0.25-2.27,0.57c-0.38-0.38-0.85-1.09-1.42-2.12C257.98,108.46,259.2,108.93,261.09,109.87 M243.73,97.75h0.24v0.24
		l0.14,0.8c-0.63-0.38-0.94-0.69-0.94-0.94L243.73,97.75z M242.45,93.6c0,0.54,0.08,0.93,0.24,1.18l-0.24,0.14h-0.38v-0.24
		c0-0.22,0.08-0.58,0.24-1.08H242.45z M247.97,85.34c-6.04,3.68-9.06,6.75-9.06,9.2v0.14c0,2.8,1.45,5.19,4.34,7.17
		c2.93,2.3,5.25,3.76,6.98,4.39c1.45,0,3.05,1.34,4.81,4.01c1.07,1.7,2.06,4.17,2.97,7.4l-1.42,6.84c0,0.76-1.89,1.23-5.66,1.42
		l-4.39-0.57c-6.64-2.14-11.07-5.13-13.3-8.97h-0.24l-0.94,0.57c0,0.97,0.42,2.15,1.27,3.54c5.88,5.13,11.7,7.69,17.46,7.69
		c1.32-0.09,2.62-0.22,3.92-0.38h0.09c-0.31,0.57-0.47,0.96-0.47,1.18v0.38c0,0.16,0.08,0.24,0.24,0.24h1.18
		c0.82-0.63,1.49-1.42,2.03-2.36c3.36-0.78,5.65-1.81,6.84-3.07c2.33-2.64,3.54-4.84,3.63-6.61c0-2.48-0.87-4.84-2.6-7.08
		c-1.76-2.14-4.7-3.79-8.82-4.95c-1.38,0-2.84-0.6-4.39-1.79l0.14-0.57v-0.47c-3.4-1.35-5.1-2.66-5.1-3.92v-0.57
		c1.23-0.72,2.25-1.64,3.07-2.74v-0.94c-0.76-0.47-1.15-0.79-1.18-0.94c-0.57,0.16-0.91,0.24-1.04,0.24v-0.09
		c0.44-0.63,0.71-0.94,0.8-0.94c0.31-1.04,1.46-2.61,3.44-4.72v-0.85c-0.12-0.31-0.41-0.47-0.85-0.47h-0.24l-0.8,0.14v-0.14
		c2.61-1.1,4.81-1.65,6.6-1.65c0.91,0.16,2.09,0.47,3.54,0.94h0.57c0.31-0.19,0.47-0.35,0.47-0.47v-0.8
		c-1.04-1.26-2.45-1.89-4.25-1.89h-1.89C253.81,82.89,251.21,83.71,247.97,85.34 M190.7,125.11v0.66h-0.47v-0.75L190.7,125.11z
		 M194.95,124.17v0.47c0,0.31-0.1,0.5-0.28,0.57h-0.28c0.25-0.66,0.38-1.07,0.38-1.23C194.89,123.98,194.95,124.04,194.95,124.17
		 M186.79,123.7c0.54,0,1.1,0.5,1.7,1.51c-1.32,0-2.05-0.19-2.17-0.57v-1.04C186.41,123.66,186.56,123.7,186.79,123.7
		 M194.85,119.07v2.74c-0.41-0.15-1-0.35-1.79-0.57c1-1.2,1.57-1.92,1.7-2.17H194.85z M187.35,117.23c0,0.47-0.41,1.12-1.23,1.93
		c0-0.16,0.06-0.74,0.19-1.75c-0.12,0-0.19-0.06-0.19-0.19v-0.38L187.35,117.23z M216.6,114.5c1.6,2.74,3.6,5.52,5.99,8.35
		c-0.06,0-0.41-0.12-1.04-0.38c-0.91-0.57-1.51-0.88-1.79-0.94l0.09-0.47c0-0.91-0.83-1.57-2.5-1.98c0.13-0.54,0.33-0.97,0.61-1.32
		v-0.1c0-0.85-0.8-1.37-2.41-1.56C215.91,115.41,216.25,114.87,216.6,114.5 M194.76,113.36l0.38,1.89
		c-0.19,1.35-0.28,2.47-0.28,3.35h-0.09c0-0.19-0.06-0.28-0.19-0.28c0-0.5-0.66-0.77-1.98-0.8l-1.89,0.9v-0.09
		c0.03-0.03,0.22-0.25,0.57-0.66c2.27-2.14,3.4-3.57,3.4-4.29H194.76z M214.62,111.1c0,0.13,0.16,0.44,0.47,0.94
		c-1.57,0.72-2.77,1.48-3.59,2.26h-0.09C212.8,112.74,213.87,111.66,214.62,111.1 M189.76,113.27c1.79-1.54,3.65-3.3,5.56-5.28v0.19
		c0,2.01-0.19,3.33-0.57,3.96l-2.08-0.38l-2.92,1.7V113.27z M212.54,107.61c0.13,0,0.19,0.06,0.19,0.19v0.09l-1.42,1.7h-0.09
		C211.98,108.27,212.42,107.61,212.54,107.61 M206.51,105.82c-1.2,2.3-1.79,3.68-1.79,4.15c-0.09,0-0.47-0.47-1.13-1.42v-0.19
		c0.03-0.13,0.97-0.97,2.83-2.55H206.51z M211.22,105.16c0,0.16-0.31,0.25-0.94,0.28c0-0.88-0.6-1.32-1.79-1.32
		c0-0.06,0.35-0.39,1.04-0.99C210.03,103.13,210.6,103.8,211.22,105.16 M195.7,102.37c-0.09,1.98-0.22,2.97-0.38,2.97
		c-0.12,0-0.66-0.12-1.6-0.38h-0.09l-3.21,2.74h-0.09C192.24,105.34,194.04,103.57,195.7,102.37 M187.07,100.39v1.13
		c-0.44,0-0.69-0.25-0.76-0.75v-0.38H187.07z M191.27,95.48l-1.23,1.51h-0.09c0-0.09,0.41-0.6,1.23-1.51H191.27z M196.17,94.54
		c-0.06,0.63-0.09,1.1-0.09,1.41v2.55c0,0.13-0.31,0.25-0.94,0.38c-2.99,2.93-4.75,4.39-5.28,4.39c-1.39,1.51-2.12,2.26-2.22,2.26
		h-0.09c0.12-0.31,0.22-0.47,0.28-0.47c0.35-1.16,1.3-2.41,2.88-3.73c3.52-3.62,5.29-5.88,5.29-6.79H196.17z M196.55,90.77v0.57
		h-0.47C196.3,90.96,196.46,90.77,196.55,90.77 M187.26,90.77c0.35,0.38,0.57,0.57,0.66,0.57c0,0.16-0.25,0.44-0.75,0.85v-1.42
		H187.26z M188.67,88.45c-0.13,0-0.6,0.14-1.42,0.43v-0.61l0.09-0.19C188.23,88.17,188.67,88.3,188.67,88.45 M196.93,84.87v0.1
		c-0.12,0.44-1.07,0.66-2.83,0.66h-1.04l-0.19,0.09c0-0.06-0.03-0.09-0.1-0.09h-1.6c-2.45,0-4.39-0.82-5.8-2.45h-0.76
		c-0.31,0.5-0.47,0.85-0.47,1.04h-0.19c-1.45,0-2.17,0.35-2.17,1.04c0,0.41,0.47,1.13,1.41,2.17c0.63,0.1,0.94,0.25,0.94,0.47
		c-0.06,0-0.09,0.03-0.09,0.09c-0.75,12.2-1.13,19.79-1.13,22.74v1.51c0,0.13,0.03,0.25,0.09,0.38c-0.06,0.09-0.09,0.22-0.09,0.38
		v2.92c0,1.2,0.03,2.97,0.09,5.33l-0.19,0.09c0.25,0.54,0.38,1.26,0.38,2.17c0,0.54-0.03,1.32-0.09,2.36
		c0.41,0.5,1.04,1.1,1.89,1.79c0.6-0.13,0.97-0.19,1.13-0.19c0.69,0.1,1.63,0.35,2.83,0.76l0.42-0.09l0.38,0.19
		c0.69-0.06,1.29-0.09,1.79-0.09h3.49v0.19c0.44,1.2,1.26,1.79,2.45,1.79c0.75-0.19,1.13-0.54,1.13-1.04c0-0.28-0.06-0.54-0.19-0.76
		c0.06,0,0.13-0.09,0.19-0.28c-0.19-0.47-0.31-1.51-0.38-3.11c0-0.66-0.31-1.7-0.94-3.11v-0.19c0.63-0.88,0.94-2.08,0.94-3.59v-0.9
		c0-0.88-0.16-1.85-0.47-2.93c1.26-1.6,2.61-2.99,4.06-4.15c0.82,0.82,1.56,1.86,2.22,3.11c0.72,1.6,1.51,2.9,2.36,3.87
		c0.79,1.57,2.55,3.44,5.29,5.61c1.76,3.9,3.14,5.85,4.15,5.85c0.94,0,2.15-0.25,3.63-0.76c0.44,0,2.45-0.72,6.04-2.17
		c0.78,0.25,2.23,1.42,4.34,3.49c0.16,0,0.5-0.16,1.04-0.47c0-0.85-0.91-2.14-2.74-3.87c-0.35-1.82-1.04-2.74-2.08-2.74
		c-0.13,0-0.38,0.13-0.76,0.38l-0.47-0.09c-2.14-2.3-3.93-4.58-5.38-6.84l-6.18-11.89c-0.82-0.85-1.48-1.59-1.98-2.22v-0.28
		l4.53-3.77c1.07-0.57,1.6-0.91,1.6-1.04c3.74-3.62,5.99-5.57,6.74-5.85c3.11-1.92,5.83-3.79,8.16-5.62v-0.94
		c-1.01-0.91-1.72-1.48-2.12-1.7c-0.69,0.25-2.74,1.82-6.13,4.72c-2.89,0.91-5.87,3.35-8.92,7.31c-2.51,1.35-3.77,2.08-3.77,2.17
		c-0.41,0-1.7,1.16-3.87,3.49c-3.08,2.93-4.76,4.39-5.05,4.39l-3.96,3.68c0-0.25-0.16-1.29-0.47-3.11c0.69-1.16,1.04-3.29,1.04-6.37
		v-0.85c0.75-6.51,1.13-9.86,1.13-10.05c1.63-0.88,2.45-1.54,2.45-1.98c0-0.16-0.44-0.63-1.32-1.42v-1.42
		c0-0.12-0.28-0.25-0.85-0.38c-0.75-0.5-1.51-0.76-2.26-0.76C197.37,81.66,196.93,82.73,196.93,84.87 M156.69,125.58l-0.24,0.09
		c-0.63,0-1.29-1.38-1.98-4.15v-0.24C154.78,121.35,155.52,122.78,156.69,125.58 M153.06,117.09c0.22,0.66,0.77,1.98,1.65,3.96
		h-0.66c-0.31-1.42-0.71-2.69-1.18-3.82v-0.14H153.06z M151.97,113.36h0.09c0,0.16,0.05,0.31,0.14,0.47l-1.18,1.23
		C151.5,113.93,151.81,113.36,151.97,113.36 M151.59,108.74c-0.19,0.22-0.64,0.49-1.37,0.8h-0.09l1.13-1.7
		C151.45,107.84,151.56,108.14,151.59,108.74 M147.3,105.86v2.17h-0.71c0-0.5-0.25-1.23-0.76-2.17H147.3z M148.29,102.65
		c0-1.38,1.23-3.3,3.68-5.76c0,0.69-0.39,1.68-1.18,2.97c-1.76,2.14-2.64,3.29-2.64,3.45h-0.09v-0.1
		C148.05,102.84,148.13,102.65,148.29,102.65 M153.34,89.49v0.24c0,0.38-0.11,0.77-0.33,1.18c-0.28-0.09-0.71-0.14-1.27-0.14
		C152.24,90.23,152.77,89.81,153.34,89.49 M153.67,86.14c-1.13,0.25-3.74,2.45-7.83,6.61c-0.63,1.04-1.24,2.8-1.84,5.28
		c-1.07,2.08-1.6,3.92-1.6,5.52c0,0.31,0.03,0.47,0.09,0.47c0,3.3,0.58,6.15,1.75,8.54c0.38,1.76,0.69,2.64,0.94,2.64
		c0.78,1.73,1.62,3.33,2.5,4.81c2.14,3.93,5.06,6.7,8.77,8.3c0.91,0.85,1.68,1.27,2.31,1.27h0.8c0.69,0,1.04-0.03,1.04-0.09
		c2.23,0,5.11-0.5,8.63-1.51c3.74-1.38,5.9-2.74,6.46-4.06c0.76-0.47,1.13-1.38,1.13-2.74c-0.06-0.91-0.1-1.57-0.1-1.98
		c-0.79-1.38-1.71-2.08-2.78-2.08c-0.6,0-0.9,0.31-0.9,0.94l0.43,1.75c0,2.39-2.22,4.34-6.65,5.85l-0.24-0.09
		c-2.99,0.6-5.33,0.9-7.03,0.9c-0.22,0-0.57-0.3-1.04-0.9c0-1.92-0.74-3.92-2.22-5.99v-0.8l0.14-1.18c-1.07-2.61-1.6-4.11-1.6-4.48
		v-0.47c0.22-0.28,0.33-0.55,0.33-0.8v-0.8c0-0.69-0.27-2.34-0.8-4.96v-0.57c0-0.53,0.11-1.27,0.33-2.22
		c-0.06-0.66-0.09-1.23-0.09-1.7v-0.47c0.19-1.23,0.42-1.84,0.71-1.84c-0.09-0.53-0.25-1.07-0.47-1.6c0.75-5.31,1.53-8.62,2.31-9.91
		c0-0.16-0.13-0.24-0.38-0.24v-0.24c2.05-0.91,3.08-1.37,3.11-1.37l0.14,0.19c2.51-1.07,5.61-1.6,9.3-1.6h0.61
		c1.26,0,3.29,0.16,6.09,0.47l1.04-0.33c-0.06-0.12-0.09-0.33-0.09-0.61c0-1.1-3.19-1.78-9.58-2.03
		C162.74,82.04,158.16,83.41,153.67,86.14 M111.96,122.38l-0.75,1.93l-0.94-0.43l0.76-1.93L111.96,122.38z M106.68,120.39
		c0,0.25-0.16,0.96-0.47,2.12c-0.19,0-0.66-0.71-1.41-2.12H106.68z M105.45,114.17h0.14c-0.85,2.01-1.46,3.14-1.84,3.4
		c-0.57-1.6-0.85-2.5-0.85-2.69C103.35,114.62,104.2,114.38,105.45,114.17 M111.16,110.39c0,1.04-0.91,2.49-2.74,4.34v-0.24
		C109.09,113.17,110,111.81,111.16,110.39 M103.05,108.98c0-0.69,0.9-1.04,2.69-1.04c0,0.25-1.02,1.49-3.07,3.73v-0.38
		C102.67,110.28,102.79,109.51,103.05,108.98 M105.74,101.52h1.04c-0.31,0.63-1.1,1.42-2.36,2.36
		C104.76,102.31,105.2,101.52,105.74,101.52 M113.9,97.89c-0.13,0.63-0.19,0.99-0.19,1.08c-2.17,2.05-3.62,3.56-4.34,4.53h-0.19
		C110.75,101.33,112.33,99.46,113.9,97.89 M126.97,90.34c2.11,3.43,3.68,5.79,4.72,7.08c1.48,3.62,2.22,6.64,2.22,9.06
		c0,2.61-0.9,5.44-2.69,8.49c-2.33,3.52-4.14,5.46-5.43,5.8c-3.9,2.77-6.81,4.18-8.73,4.25h-0.14c0-0.41-0.11-0.64-0.33-0.71
		c0.06-1.16,0.22-2.47,0.47-3.92c-0.22-1.26-0.69-1.89-1.41-1.89c-0.22,0-0.46-0.87-0.71-2.6l0.24-0.47
		c-0.41-0.76-0.61-1.86-0.61-3.3c0.28-0.78,0.57-1.37,0.85-1.75v-0.61c-0.13-0.22-0.25-0.33-0.38-0.33c0-1.66,0.16-3.21,0.47-4.62
		c0-0.25,0.44-1.78,1.32-4.58c0.76-3.11,1.57-5.08,2.45-5.9c0.91-2.51,1.9-4.56,2.97-6.13c0.47-0.19,0.71-0.58,0.71-1.18
		C123.36,87.29,124.7,88.39,126.97,90.34 M118.24,86.8l0.52-0.14c0.6,0.35,1.05,0.52,1.37,0.52h0.14l0.05,0.24
		c-0.6,0.16-2.03,0.76-4.29,1.79l-0.28,0.05l-0.05-0.24C116.01,88.93,116.86,88.19,118.24,86.8 M105.5,95.53
		c-1.95,2.33-3.44,4.72-4.48,7.17c-1.51,3.43-2.26,6.18-2.26,8.25c0,0.88,0.05,1.67,0.14,2.36c-0.09,0.5-0.14,1.18-0.14,2.03
		c0,0.16,0.05,0.24,0.14,0.24c0.06,2.2,1.48,5.35,4.25,9.44c2.64,1.95,5.39,2.92,8.25,2.92h2.22c0.41,0,0.64,0.13,0.71,0.38
		c2.45-0.19,3.68-0.39,3.68-0.61v-0.57c1.95-0.28,4.42-1.35,7.41-3.21c1.92-1,3.93-2.45,6.04-4.34c1.6-1.73,2.86-3.43,3.77-5.1
		c1.63-2.86,2.45-5.14,2.45-6.84v-0.71c0-5.91-1.21-10-3.63-12.27c-0.75-1.73-1.38-2.94-1.89-3.63c-1.2-1.32-1.79-2.08-1.79-2.27
		c-3.77-3.62-6.24-5.58-7.41-5.89h-1.18c-0.35,0-0.78,0.05-1.32,0.14c-0.13-0.09-0.31-0.14-0.57-0.14
		C116.43,83.68,111.63,87.89,105.5,95.53 M56.91,62.13c-0.38,1.04-0.57,2.36-0.57,3.96v0.28c-4.72,2.45-7.64,3.68-8.77,3.68
		c-0.5,0-1.07-0.19-1.7-0.57c-0.19,0.75-0.47,1.41-0.85,1.98v1.13c0.31,0.57,0.6,0.85,0.85,0.85c-0.38,1.16-0.57,1.92-0.57,2.27
		l0.28,0.57c-0.19,0.41-0.38,1.26-0.57,2.55l0.57,1.41l-0.28,0.57c0,0.44,0.09,0.82,0.28,1.13c-0.19,0.31-0.38,1.82-0.57,4.53
		l0.28,1.13l-0.28,0.57l0.28,1.7v0.28c0,0.44-0.09,0.83-0.28,1.18c0.19,0.35,0.28,0.63,0.28,0.85c0,3.18-0.19,5.63-0.57,7.36
		c0.19,0.35,0.28,0.63,0.28,0.85c0,1.16-0.09,2.58-0.28,4.25l0.28,1.98c0,0.19-0.09,0.47-0.28,0.85l0.28,1.7v0.57l-0.28,1.7
		c0.38,0.98,0.57,2.96,0.57,5.95v0.57l-1.13,1.7v1.13c1.7,1.57,2.55,2.99,2.55,4.25c-0.38,0.94-0.57,1.6-0.57,1.98
		c1.19,1.7,2.33,2.55,3.4,2.55c0.76,0,2.17-0.75,4.25-2.26h0.28c-1.64,3.77-2.96,6.13-3.96,7.08H48.7c-1.26-0.6-2.2-1.16-2.83-1.7
		h-0.28c-0.38,0.06-0.76,0.54-1.13,1.42c0,0.66,0.76,1.32,2.27,1.98c1.63,1.26,6.54,2.48,14.72,3.68l0.57-0.28
		c0-1.39-1.51-2.71-4.53-3.96v-0.28c1.73-1.73,3.14-3.8,4.25-6.23c0-0.38-0.66-0.66-1.98-0.85l-1.98,0.28h-0.57
		c1.51-2.58,2.26-4.18,2.26-4.81v-0.85c0-0.44-0.57-0.72-1.7-0.85c-0.57,0-2.64,1.23-6.23,3.68h-0.28v-0.28
		c3.33-3.52,6.07-6.92,8.21-10.19c1.13,0,1.79,1.04,1.98,3.11l-0.28,0.57c0.44,3.8,0.91,7.01,1.41,9.62c-0.19,0-0.28,0.09-0.28,0.28
		c0.06,0.94,0.25,1.41,0.57,1.41c0,6.23,1.23,9.34,3.68,9.34h0.28l0.61-0.28c0-0.28-0.2-1.13-0.61-2.55
		c-0.85-1.32-1.7-4.25-2.55-8.77c0.19-1.26,0.28-2.48,0.28-3.68c-1.32-2.74-1.98-5.57-1.98-8.49c0-0.16,2.19-0.54,6.56-1.13
		c0.31,2.24,3.52,6.2,9.62,11.89c6.57,6.8,10.16,10.19,10.76,10.19l1.7,3.11c0,0.19-0.09,0.28-0.28,0.28
		c0.25,1.32,0.63,1.98,1.13,1.98h0.57c0.57,0,1.04-0.94,1.42-2.83c-1.01-1.7-2.9-3.59-5.66-5.66c-10.85-10.5-16.7-16.83-17.55-18.97
		c0-0.19,0.09-0.28,0.28-0.28c6.2-1.45,10.63-3.43,13.3-5.95c1.45-0.22,3.05-2.48,4.81-6.79c2.83-1.76,4.25-3.74,4.25-5.94
		c-0.19-0.38-0.28-0.66-0.28-0.85l0.28-0.57l-0.28-0.57l0.28-0.57c0-0.19-0.09-0.28-0.28-0.28c-0.94-4.94-1.6-7.69-1.98-8.25
		c-3.11-7.05-5.47-11.48-7.07-13.3c-8.05-3.99-15.57-5.99-22.55-5.99c-0.63,0-1.24,0.02-1.84,0.05H59.5
		C59,63.95,58.14,62.92,56.91,62.13 M51.81,75.15c2.04-3.02,3.55-4.53,4.53-4.53l0.57,0.28l-5.09,4.81V75.15z M49.55,73.45v0.85
		c-0.75,0.85-1.13,1.32-1.13,1.42l-0.57-0.28C47.85,74.11,48.42,73.45,49.55,73.45 M86.39,79.4v0.28c-1.7-0.31-2.55-0.69-2.55-1.13
		V76L83,74.87v-1.13C84.07,73.74,85.2,75.62,86.39,79.4 M48.98,83.93c4.4-5.38,7.04-8.3,7.92-8.77c0.57,0.66,0.85,1.32,0.85,1.98
		c-0.69,0-1.07,0.38-1.13,1.13c-0.94,1.2-1.42,2.04-1.42,2.55c-2.45,3.4-4.72,5.09-6.79,5.09c0-0.19-0.09-0.28-0.28-0.28
		C48.13,85.25,48.42,84.68,48.98,83.93 M86.96,80.81l1.7,3.4l-0.57,0.28h-1.13v-0.28c0-0.75-0.09-1.79-0.28-3.11v-0.28H86.96z
		 M57.76,82.51c0,0.44-0.09,0.82-0.28,1.13l0.57,1.42l-0.28,0.57l0.28,0.57c-0.19,0.35-0.28,0.72-0.28,1.13v0.85
		c-0.88,0-1.82,0.47-2.83,1.42c-1.92,3.99-3.9,5.99-5.95,5.99c0-0.22-0.09-0.5-0.28-0.85c0.85-3.3,3.58-7.56,8.21-12.78L57.76,82.51
		z M47.85,89.3c-0.28,0.57-0.57,0.85-0.85,0.85h-0.28V89.3H47.85z M57.48,91.33h0.28c0.28,0,0.57,0.38,0.85,1.13
		c-1.39,0.94-2.52,1.98-3.4,3.11c-0.22,1.35-2.01,2.96-5.38,4.81C49.83,99.79,52.38,96.77,57.48,91.33 M89.51,92.18l0.57,0.28
		c0,0.94-0.28,1.51-0.85,1.7v-1.98H89.51z M49.27,108.03c2.55-4.62,5.47-8.3,8.77-11.04c0.57,0,0.94,1.32,1.13,3.96v1.13
		c0,0.38,0.19,0.57,0.57,0.57l-0.57,0.85v0.28c0.47,0.57,0.85,1.79,1.13,3.68c-0.19,0.28-0.28,0.85-0.28,1.7
		c0,0.57-3.49,3.02-10.47,7.36h-0.28c0-0.38,0.38-1.13,1.13-2.26c4.59-4.62,7.33-8.02,8.21-10.19c0-0.57-0.19-0.85-0.57-0.85h-1.42
		c-1.89,1.32-2.83,2.27-2.83,2.83c-2.11,1.89-3.9,3.21-5.38,3.96h-0.57C48.1,109.39,48.57,108.73,49.27,108.03 M47.85,97.84h0.28
		l-1.7,1.98v-0.85C46.47,98.69,46.94,98.31,47.85,97.84 M81.58,102.09l-0.28,1.7c0,2.39-1.51,3.9-4.53,4.53h-0.28l0.57-2.55
		l-0.28-0.57v-0.28c0.63-3.02,1.29-4.53,1.98-4.53C80.39,101.52,81.33,102.09,81.58,102.09 M47.29,113.13
		c0.38,0,0.57,0.19,0.57,0.57v0.28c-0.28,0-0.66,0.19-1.13,0.57h-0.28v-1.41H47.29z M54.64,115.96h0.28
		c-0.06,0.91-1.01,2.23-2.83,3.96c-1.57,2.01-2.61,3.05-3.11,3.11c-0.57,0-0.85-0.19-0.85-0.57v-0.57
		C52.19,117.94,54.36,115.96,54.64,115.96 M60.31,68.64c0.66-0.03,1.34-0.05,2.03-0.05c5.5,0,11.73,1.34,18.68,4.01
		c0,0.22-0.1,0.5-0.28,0.85c0,6.32-0.57,10.85-1.7,13.59l0.28,0.57c-0.54,3.36-1.85,7.72-3.96,13.07c-1.7,4.59-2.55,7.61-2.55,9.06
		c0,1.51-3.13,2.55-9.39,3.11c-0.19,0-0.47-0.09-0.85-0.28c0-0.22,0.1-0.5,0.28-0.85c-1.51-6.82-2.26-10.51-2.26-11.04
		c0-0.75,0.38-1.7,1.13-2.83l-2.27-10.8c0.76-1.79,1.13-2.93,1.13-3.4v-1.42c0-2.58-0.28-5.31-0.85-8.21
		c0.38-1.76,0.57-2.89,0.57-3.4c0-0.31-0.19-0.5-0.57-0.57l0.28-1.7v-0.19L60.31,68.64z"/>
</g>
</svg>
