<?xml version="1.0" encoding="UTF-8"?>
<svg id="a" data-name="Layer 1" xmlns="http://www.w3.org/2000/svg" viewBox="0 0 47.35 39.86">
  <defs>
    <style>
      .b {
        fill: #1e3e4d;
        stroke-width: 0px;
      }
    </style>
  </defs>
  <path class="b" d="M25.71,39.61c-.92.08-1.87.36-2.76.2-4.96-.89-9.89-1.93-14.57-3.96-2.68-1.16-5.13-2.7-7.34-4.66-.95-.85-1.21-1.73-.95-2.93.97-4.42,2.18-8.76,3.85-12.94.58-1.45,1.3-2.85,2.08-4.19.35-.6.97-1.1,1.57-1.49C12.09,6.65,16.62,3.71,21.13.73c.82-.54,1.69-.8,2.66-.71,4.06.38,8.12.78,12.18,1.17.78.07,1.37.46,1.87,1.06,2.45,2.96,4.9,5.91,7.35,8.86.37.44.7.93,1.1,1.33.97.96,1.2,2.13.96,3.39-.62,3.24-1.31,6.46-1.97,9.69-.12.59-.29,1.16-.36,1.75-.15,1.19-.74,2.01-1.77,2.57-5.62,3.09-11.23,6.19-16.84,9.28-.21.11-.42.2-.64.3,0,.06.01.13.02.19ZM44.09,21.51c.22-1.05.51-1.89.55-2.75.11-2.58-.96-4.78-2.55-6.73-1.62-1.99-3.42-3.83-4.94-5.89-1-1.36-2.19-2.1-3.76-2.29-2.55-.3-5.11-.58-7.67-.86-2.79-.31-2.75-.22-3.8,2.45-1.01,2.56-2.25,5.02-3.43,7.51-.23.5-.58.99-1.39.84,1.28-3.32,2.54-6.59,3.79-9.85-.06-.06-.13-.13-.19-.19-.3.12-.63.21-.91.37-1.93,1.12-3.86,2.24-5.77,3.38-3.14,1.88-5.96,4.09-7.76,7.43-1.97,3.65-2.91,7.63-3.62,11.69,0,.05.04.11.09.22,3.56-2.35,7.09-4.67,10.6-7.02,1.04-.7,1.8-1.65,2.06-2.95.04-.2.11-.48.26-.57.27-.16.61-.27.92-.26.08,0,.26.5.23.75-.1.84.22,1.44,1.04,1.6.45.09.95.13,1.4.05,5.25-.94,10.49-1.92,15.73-2.85.97-.17,1.47-.72,1.6-1.62.09-.6.03-1.24-.03-1.85-.07-.67-.26-1.32-.32-1.99-.06-.67-.03-1.34.51-1.89.76.66.99,1.55,1.14,2.44.39,2.44,1.01,4.8,2.41,6.89.98,1.47,2.14,2.75,3.82,3.93ZM33.58,17.88s-.06-.08-.09-.13c-.41.1-.82.2-1.23.31-4.92,1.34-9.93,2.28-15,2.83-1.56.17-3.09.37-4.4,1.31-2.42,1.74-4.83,3.5-7.25,5.25-1.61,1.16-2.06,1.18-.17,3.18,1.54,1.63,3.47,2.65,5.55,3.28,4.04,1.21,8.11,2.3,12.17,3.44.6.17.85-.11.86-.68,0-1.15.05-2.3-.01-3.45-.16-2.94.54-5.54,2.58-7.68,1.23-1.3,2.42-2.64,3.63-3.96,1.12-1.23,2.24-2.46,3.36-3.7ZM43.5,23.29c-.14-.16-.33-.5-.61-.68-1.89-1.26-3.43-2.88-4.89-4.61-1.24-1.46-2.07-1.39-3.24.09-2.31,2.93-4.62,5.85-6.94,8.77-1.21,1.52-2.03,3.21-1.9,5.24.07,1.15.22,2.29.39,3.43.15.98.44,1.1,1.28.66,2.33-1.22,4.66-2.43,6.98-3.67,2.07-1.11,4.13-2.22,6.15-3.41,1.21-.71,2.16-1.73,2.72-3.08.35-.84.42-1.71.06-2.74Z"/>
</svg>